<mxfile host="65bd71144e">
    <diagram id="HIP3nbAZw_EuaXWnEj3U" name="Page-1">
        <mxGraphModel dx="683" dy="478" grid="1" gridSize="10" guides="1" tooltips="1" connect="1" arrows="1" fold="1" page="1" pageScale="1" pageWidth="850" pageHeight="1100" math="0" shadow="0">
            <root>
                <mxCell id="0"/>
                <mxCell id="1" parent="0"/>
                <mxCell id="7" value="http://ics2o.mths.ca" style="swimlane;whiteSpace=wrap;html=1;" parent="1" vertex="1">
                    <mxGeometry x="40" y="40" width="760" height="480" as="geometry"/>
                </mxCell>
                <mxCell id="8" value="" style="shape=image;verticalLabelPosition=bottom;labelBackgroundColor=default;verticalAlign=top;aspect=fixed;imageAspect=0;image=data:image/webp,UklGRrBOAABXRUJQVlA4IKROAADQxgGdASogAyADPpFGn0slo6aho7QaENASCWNu9K2umtx/6c6Rvu4YOWy9Z/1SJv5+g/vP7teFdxzxf9v/c3/Ae9xXn8D/Zf8L/1P717te9DsjzU/Iv33/v/4X23f4j/mf2/3I/mf/pf3T9////9gX6zfsR/lvbi9Rn919AP9J/0n70+77/tP2891f+b/43sB/37/d//HsO/81/6fYc/on/Q///tI//D2Zf7P/4f3j///vVf///y+4B///bl/gH//6wfy/+9/7z/JexH5//P/9Hyr1k99f4nwd/nH6F0Edk/zo1BfY/qFPvHAXvNnJ/o+a38j6gHfv+HpQL8pjv5fuPqNdMT0hh/ZSbA2306dCn2Og5cKG1tgpNgbb6dOhT7HQcuFDa2wUmwNt9OnQp9joOXChtbYKTYG2+nToU+x0HLhQ2tsFJsDbfTp0KfY6DlwobW2Ck2Btvp06FPsdBy4UNrbBSbA2306dCn2Og5cKG1tgpNgbb6dOhT7HQcuFDa2wUmwNt9OnQp9joOXChtbU5dZO72iyKOvV+NXLhQ2tsFJsDbfTp0KfY6DlwobWo/eDFcTwcKuie20cmH+VSZ/7weCZYcDfpxrHkPVzcKIXsMZVW6jok+nToU+x0HLhQ2tsFJsDbfTWi7Q83wV/8F5q5FJXx0Occ4EXARwqAuil2z4AcuP+r1sTr+1D1H8mhDOWM7ibIKWM+rifohR10F5lr3gW8MTv+iyHyDrp1cr7+Qp9joOXChtbYKTYG2+b45MPMGNdV4pNVkzp4kN7KLIYK9tMNpQkNaFJtbr1gxKuuFlFnuWRuzDpvgytXUpFru4JiUHAGSOBUlD3B66FjOPAM5C0TIwoUNrbBSbA2306dCn2NUp9aOh41roBIcpGz04V9JlObq0IXib1ftRAuQwdSEi7S60OsfK1ViFYFSodyTveAZZ7/5yJZl2jksodcSyqAhWKuF/HQcuFDa2wUmwNt86qVNXWZDtT4mxfFjRtUHtQkMjrDlwobW2C1QdTxIweS65SHPb2SqlJaGh0DHChQ2tsFJsDbfTp0AlCDI1A/21mQjYZJEzJxt5IGhWwUmwNt9P0hE0IR2GrqaH/yYcHa1f9Rqccrw5cKG1tgpNgbb5s9//D6h+s6O0+3ou39jSlr2iOerUm1tgnMgf3XrJXAcmeXChtMjejuyc/H+xvb23DtCkOo8Ngbb6dOhT7HQTHY515H8Oss/MZWP2Oi25fb4QnGOg4eKb/fAjI//3E9m5Hz6Yx6nUtVwQHMIn3xa5Gp/6tgpDNLdY8fUBdyHP2ITDNnNJo17jfqG1tgpNgbb6dF1S47aoudihsBSJCIp8gFz/t/9tEKV4kG5gj//qZSuVA+twdqaMsuLDuGqNFqR+hD5Z9ZpwyxybH/QNqRxZmBJnhR4yT4T6dOhT7HQcuG2+sPbGZE6L1a1IILxNuAtVgC957//WZY7V4LAJh13KZav/dH6dWFjJ2W9Dqx6FPmOCe8kZH2VdO0KnMdogqZntOpg5g90bhJznHIgmZKMBioYJkJ+xdRufY6DlwobW2Ck2BtlzNh0LDTRE6egMU8AZasajQqr9gPf/9+n/Vk6PNxgoA6O5+0qTEYh84wk9bBvoUk5hbro4ynkc+z0rOD3Nm4M3OVyWIoLanx6AtoK2Ck2Btvp06FPsdBOjrwW9QOUhdTC9V7vcl08DAmlLvQwP/hPyfoZ0PbvIdPqgEi//wjN5MDp/r990C990hI7HYPngTk9o4bE1BGfQBSpX3ZPYGT3dB/UaGFYSi5ErMDH46zYfdiSy5/jRVZIKrW2Ck2Btvp06FNL11rbTuh/ydN/a/F4pZg+XzPfNjULq7/+3ntK9QTn4tO79H8BAVm2BztcGP3t3jE1OGHbLu8pm1imucJx8f1IO1VymGT0N8zibAaPva0tY43e/gyTY9Kf5CHtu4Y4Rw54VwobW2Ck2BrHW3b/3HUi7SgKynyR4f4i6X85WUX8QI0HkB5Tr2PL5clQlULk/oq993fBjyU3toSffjQKZFHqmdbvsBVXTuIeE44x3Yasodg9Ef4+z6dOhT7HQcuFDaiuzrXw/v4ZQ3rBcfU6varw48Rn7ddw8fL3v5/i2CJdix39aW2E0McNBbhdmqDHnQU2vjbbsBEdmaRfxBY2306dCn2Og5cKEMmnoPLhW+ATlAc2yhRwa8+nZUYvvyal1uRZx9OODW5bHOKqsI5PLtwURpNPQWzyJSk2Btvp06FPsdBy4UNW8WxPip6rxErAZBWBDZR51KRgMM+PLk3+yn6X8y2scYwsHuMY46x46a/S8/AbW5+IV0HCy/eayDng7nV70nQcuFDa2wUmwNsnGN+/iWdlVYjztIrtezDOuGL1EflEtfQE9wU5vClyf8sw2LxNUQxaFEX03gCnsgzdxU6op1Fck5i3gntRE2jTyL09heGXowjsCBc4jWUlBvoK2Ck2BtvnBprpgMpew644vXOrELZ3mO3KKEJUJpII7njihmDr3evD+Q0LPlkMoQfxqxFyrw/Ig33gx0Lr5SENmCcOKU67zJgIoXjfz9bgcUnt9OnQp9jVPVow4v9zQHCyqLUJc4GZoK5M+OihTLe6VxDyAmpuqfLM9Msl3fXBgAkQnBC/t86xjb2Dr2/RqzE919zoh86Qk97BSbA2306Ks09BP7rxl5NLH8ipLk/IQcW2/laqs2CiUi+FEP3sfQXXoqYQvqPi672tzT5Lp112CYUcENAXC65MML8qTgQQoajeS+ObAuZ5Fe6D6CJl3pnCBluYyfZ2MNhri+xru/Y01q19gFRmtsBTDwFPRD3sXslAU6ve7FCksEhc+x0HLhQ2tR51DGCvT5rYvNXPkJB8tkPZ8UKFKWxN7Qyug4tqJ9ewmZExh1TSvqRSQ4R2WLUhGJ/8yXdpmsmR/nhM8S4UNrbBSa6mXgArxPxqW+FUggfUR9TxbFZQpTq97LsDXiVwuz4oUKUxtczvNh/MU13GjEI0w58hrtI0yFPsdBy4UFwEqcflHi5qXGCPHb1L/jqZFI3M8WxPiMEi7lCYzf64XaydJ7PyzCy/KfUDZZHEh4nV7TcvtVl+GP0H49/GMFs9MLL9eCyCw/Tp0KfY6DiCAd32SRCV7Usf5NhF8FNHs4Ph28/I+Xah9MLlgk7grqeE9nCtQ1oTEN2YFXLsxLW0ezlv8bFbpc0EhJ/TzOm+jKPgQ+Ig3v4fEgwMO+wkX8uCkEarSJBEV4W034UmdcRyZ7DvcLVR/Eestihc+x0HLhQ1CtpUH9cz97E9i8eSwuq8tI7beH/yRmTIr8tCMt1/HdRqAR6RsNvVNgjPFJHPYyBzoHYBppSiDf3Mb6/FEfmKfcVsffw2306dCn1/wLmdpv5RhJP7HTdQZHaGl6SlFyOBj35mIzxVaf2Om6gyOf4y3X8Ya9WsPeUmwNt9NWtzkXMzIUK7nKgyKVr5H/fWSUqHxQt27cWutDfLQeWQFGJBAiIp6y/HnvN0+bqJroWCwIuxICpwJpRY6DlwobWqOXVVdYfglUS0OmnP0JIErhKu4GlSu12Rlg5ILEnMnBAMf/ArjGr1618bHj/Q7T5FEEBheEViAY0J/bqNCZ4fM2uSNcB0ya6gSGjhg1KN6Zu8dS3Thuivk3BMjg7lC7om1BFEjCcNTgMWXc1DFmaAIBaEDQONq8g9hApbKtj8t/MpHjZhQ2tsFJsCYMYEVXCSpKUyh+uLgLNkRHjLOM0uD9xtK/NqHzQxGSrEgffiSW84hDuEjX1KGDVWhypwGH/GgXoK0FwBBn0r/G5X6LW2Ck2BtvptcbnPLufY0/zCipczMS7eHDCA0JR0vmr0X0GwwPTkN7iAAnv+rny8Fx2Ebq/656ptyMbQaIhi6sBuwBa6hhi0lEAOxcDI1QfsYD6/QVz/ngd1m1elJsDbfTp0Jor7Yq6rgiIJENJg3rbVm6qpUMJ8BubNcQGCfQlhT/sg7VRM/ZxSGsJeG2ZVGB1YuF7V9zRtzqgRvQwJX2YDsbW2Ck2Btvn55dVqj/oHOeZcLbFp0Gy7DAYPznuiGLiGCs0lk6LwsMDbDZ7r/d1RgAvmyUdlRtTXV1iIbYz7fTp0KfY5zqzevUPAjbARaMKI5Hf5IhEDFd6D7qvHQTP1zw30npB3ure3RoNKw0uZdg2RF3h2xul6WYZlQsY/0aifUGF/rZh1bTTprxam+qS3FK6cUxVJjSjetvzn3tNR0q76XDtpKoFjiOgZ8WW6ysmYw8GUEvPVuug0nt9OnQp8mKIBM3iToVJCooQ5V2DzM8w7Y0SDKVdoz7Ai7dpK/9vpcCnZvXf1gN3ugVLQ8gjZDxR/lV5hv4BPduD0Q44gKFElfnZQEx6yF74MonMDljA07aPuujE18pnYAEwLqJj/j6F+ROg5cKG1tgpQWPCT6dOfApm77ZmYyWJJGu3cC2hlNBWwUmwrYT6dOhT7GvTzcgQRniq0/ru43+QnfjBHP/80GrxuFiTupU+HiuncSmv/v1vhGE2GhOdDzlg1eycExlR/2Om6gyO0NEh4EBxjoOXChtap+e8JIUL0lfcgQRkKk8Eo+Hs/BwguT/5RVYWCOyZRCj5+Hh2qt1vz0BhtT3JoyJz2G7HmYYUL0lfcgQRjyWVsDbfTp0KfY6DlwobW1/X8ON91jVhW6G5Jsl1jkEaTsew1bBSbA2306dCn2Og5cKG1tgpNgbb6dbOJNt9OnQp9joOXChtbYKTYG2+nToU+x0HLhQ2tsFJsDbfTp0KfY6DlwobW2Ck2Btvp06FPsdBy4UNrbBSbA2306dCn2Og5cKG1tgpNgbb6dOhT7HQcuFDa2wUmwNt9OnQp9joOXChtbYKTYG2+nToU+vQAD+/1boAAAAAAAAAAAAAAAAAAAABEI/VNMklwNvt5KgDnqaJ0Cjm6hn4ST2gFWB2QXqxw4/C1i95FDqs5xTO2fZ8/ZlxzpipWbschnzeAB00TMAavgdTPajUF+BBzUeikHz3wu9fHGJDix5HktBDJInvl8AAAUWkMuXt8FTvX10WzC5e6RqMAQi//5ba1g/bKpf+wQEb8O7oHxOnCcd8w7YPPt5xSW36iFq1n3i5JRLqWMRmnNO88Qarr1O0qC6T0mFqfCHpwNwYi6vh7FoKm+o1LVYCf4Ue6ZF2f8tYorybGoShO/b8iauNZ2sHH01VPe6iJWzufAKtJ4NS3cJt/H/YNvKJvxkuwN9+y+B+T15x2oAmn91rpG5+vaobhNQk3qQpxcq+1IaJlpjqosiZhAAzRsMPeUJaiORk/8P2Paxgot1+EM2zE0GjVSHTbAAZsN92zkGD0BiFsD80SfnuA5a0hwD4jbraeRxMF2MzWMrJY1kYOjUZRdHSptO3aVPK0R+N6SA3ffh28Az3iGxHIS7Yl3OHlKRxN6svDbotM1DJqtM39vWVp+4MJ9LXw6KQ9o+6nRiUJnQ7OEdEx5mTHTpQsukAQVAWKMeYA4MjzV4J3ZYvmSB22F9O07CFvaL6+7tdMjqPJAkc0xPePQAAjMZDE2rZ5XLh5Jz1PZQnxK0h614SUWv31p8eI8p6qiy7WhSEpmwYNMRBuquqzeqrimZheD18ymTaEti356tY8zNu42g1z1KqQkUNx72ohf63neB47UMOpwbqhOaOj+z67eA9BrMLkJUbDLVCFpXHx6HPTgphb2AizoaLS3MCbq3KZGFho9TjdWgmjRFR5s5EtMsXWiZKqj8XC0oYL1rekbaSDNcKYy/H9sOeETOpSGAA/GqwycCpVMyhyhavfYVP2A7/O/tbDXnrfnmT9cbnaFYSwtBjLUELYGlRlA7nuRmN+EnAWmUhHmWfXDrTlj8FlTR6qByn5NhJVzrB3yzh8AXFr/tN1Bs4CD50sqkwVGuhTiMZNwFsAQJfNDlSpT01kPtWmk1EBt8vSWf1uBq2UWQ01+QhGGHPLIhnAAtXjnNsXkkthwIpd9N5zkeJhUZU+htV0DO4P0OX7jobMexhP0A3NUicJnrPv4mfJ7xYafV+d2HrahoBjHYZ+NdDI/PMsN6yp+ZWZy99m5xjCclJrO50ZX22lX4w56aPOAZy0iAl61aNpsALtHRddlVDJZc2Bk46rsxoMdsO2ItTew2var+uczzWvSJUX62eV1KJkynJmMVFW+64IvaMzSyshjV8C/TgXBuOBPczJ1HUqL6zH2xnWR0nMdpCCK7vlsqOHGOus5+PWu9QRvAhXV912cJBfp4C/xtUiJeshtx47wU19IeAPiBRz4LproKJPzzwlLjdiEuUH3FD1BrrFGwf6yqPxGWCt2fDGo05d0QzSAz7CkNzGF0bKe1pXVrwoAAaVgKwKlDFsvD/drbfzu5DNWWRTMCC8QqEYx4JFF8LkzBY2MjljuvIz/ikqUjr89HhkRuQeqNaRl3EIhcfiH1p3uNn8kREcYBNzArK8EQGJlk12x7hgTj5rJfwMwIhqE5ZlUF+nAlPzi3TY8LwZygqB9AFdDTcfcLDArdrd0Fbz1H4y9q/tcW84C9imjnhHYwCCtIz0gyxRMJ08h01zGmOu3WD6pPyvUpu2HlMN6qUx8VZCIoKyhBtI3kG6lO7lwPdcStw3+P/3M56xaOiKLrXG6+LwzSu/0dVjUaCAJnHh6feQMgQ795ru2PLv49JPUcifthxbArg7xU51WM2F+y0OKwJhFqm8jOkz0o16fnI67pLBwKs/lQpSh07gFnam6DhqS+8RuRd9wZHHt/bZvEntE66NsBJE9u4YlchvTBj4R+YvqaP18hg/kwmB8Ny9wUjFqPhwMnF5iKZoK0+DLEb8ztR8pZnujhbKjIlRwNyh0XzZU2gkz8TJo7ilW0w3n9MqGq3sC8nFJYSu1jQUKHNfYv32CS4P3jdi9+2AxqVd4TDPUSwUEEBGIuclHHnaEgMzhxPzcJeK0Ywe9k+2s6/FLcwrQY8h5BIYWgIQ3x2X9SAp5iEDT9EFnyT5JPD3lvrd1/NVoCMKlcX09k2ivK8ZbU4PV5JTvchN549IN6AsLx3ufIw7MAAqTCzTUvLpDBcPIzHz7ku+6YR+SQCsHHjsEkTNiLBAd05t6qUZ0ub7SJZy0JIEj2NvEHP3lcg4x2LGTn1ENzAa+Hwyi0nUJC33BbD7ZHW5IXSBgPWVfKLoUOkWbR1E/6iAyxfICv/iIOgfEZ22W4Rybdnq5htTFKUEZp9QDnCqQwGexkTYE0nRdEgf1JlK30oT40FN7HkS8SH0/HYcr7hDbjeCba+hD1jotLafwxcbIRzI/bRBMS5Potqzza0qcGZVqK6EpPBQQSOf1OfgnsHlDcx5sZRm8q4AAB4Kt/X9VC0IGN2+p+3lhnk1nfiswMLyftu5xpkBDbqzNapTd4/RFoMGy1RkZYB1n/JpdN+HzhFdBV4whY7+HJ320sTCYrnvOPJeUMyZC5YH50/O9JN3AhczmcjomA3w2WGlfn6u0P1FWQJrNvN+qkDvvKv0r+3G9+UFmX6WhEpWUndB3Lp4eC5XPmmctrVKLpq9E3Gy/1iWJNk31hD6vrOrvVG5EKSu0x8Jm8g0xQrbtGExMfSLSrAw6zNunD7WZ89fFvoWv919J+cWvQPCWgBFGWzO9PDD0YfEBLO5+fYAE4zsMo/ogHSB6yMyt89DsN1p+8GttnEF/HmuzHLhhJ0WQGP9a/1sgnboCFLi8DMb4UTpHz40caNufsGNX9l7adexJeKOsZe7Dua/3aCjfnSKnr6eIfKD1+1Rbgg0XEsiXQRB3VlqSe+FXlQMUGDUYDO1ShOvUrOpgeiXBpZrpcO5hfWQzLhVMy5DK6FaAlyZ8To6RsODQVtQOOgrsPyXAAAiTqL4YVIlLtqqeeiv0+Ear+T/+Zl5jz9hWk9WVYjBktcBxm6k107NQ1CPDe9oxb6LMCGqTeY46JTkdb6ulFoP80Ga2cXWFtwFA6QCvb2U9o36MfOrTdLm0NaYc7JaRFw1CMYC64/Vtd9xursK7xE3HpdV8+NNKOL7ObLvN0rpVYAJqSDTVDnw5SmoKTIpPruZjZ1Q+gA3AKtGaJgLTFCx68eDOVHmmG2XyTlp7VK2h7EypHMy+XhvsTYjyihBxCvQ94LBfkbbAx4tpr55VJRVxdDhTalKnofKg0QkmKdYoLEEyyuYJ1EmMuUEqJ0eMq3g04AdiTsvmGCi05AHIMrgCd3dWuwAFHeeYo+1uJyzhTiOcnTtE5n0kDOjkknLLu9de2CHNhnINxseR0G44aUDD6Sh8q4DzWQPGvb0Kh5RffZ3j35ULrYDiJrTJT5IVTs1YkzYQYZOw9ABSIU+IuW+P7t+niMLsPNcDrO8jERHefJjI+yM/ULXhs7RiWw45t8L+Fs6SS89a/21nAkswK4fPde3EDClRgzt+fMddJMDRae982w3guwALNVWdMVcQO2UB2kzxQGD3IcG3qCTR+oKQJ9DtTy4cXfLtLW/fVm64Oo67wgOPF7eMsRp9KCGyvBVUlV6iNZIvMRAwtxUeox7jSsdUuLoynJZLlp29S6vR6iCyXbsDQN1NhiR1YHjEdnkRCd4KwlKYJ/A2xNKGU3hPVrMI8VO2PTPyEM+elGFfiY7irmlPTmQZDw9V9Xf0SvzTBQIc/yo+vq9SdFD2AhADIYTxL1mgVPWXOPFANdbZ08sfDfQ1uqstoyjRYrW8MlwZqixGWTaujYNjJubfjCaZm43vgNc34A1hA5zXBlsC1Q3MfDypfw8aWhFG3Is5STD97vZBqdR73Jx9rWw2hvnznrc2pA8gDHRwDwL06UiN/93T+ol5sGgT1SWB4tMQzyD9E6Rk5dHauE33lwDaAUuj6DvKkoELulJQscdNKhyM1mZjLOaABGKlVNagpHw8a5tLjV0oAgPqsLbQcNKgP5RPZ/7fZdHhUVrP5Cg22k5Y0rltAwxJyL1EdoO8IYfYPDgmkmVAMWcAJUsdwIroselQRQbgMEGozCzPppdHd2+WBFVuSmcYKcJPVSmKkOWgbLFBAduLK+z037y8vkdYQuzD3JIcFghbKcu6m2ugrafEccSgloFFlbsLS80+nS62TmslyuMrYwIVRU/RcJT4VsjEi5PGYuKhuAqMmYZlbALhJSbTu951xtOmpYTJzcvIfmks6q93bea+4uVDD+Iae8ATmCtSTL6+oOeWzENE5V0ZGVWTLkV37BuUu33EHA4TTU4jJy8Dqx2RAk6sSN9TdhoRxFVzRaW+gS80G6e+A10R8bNnMnbY8v7m2gAYkOVDDdW6KejUhuG619WEvTwFI1zpKHIIPe9qXVgR5Defiz0yO+VXUElZ55tDV57WHnYOmOSvjPv6Qj9L6DVszbxpEdlP9QVdP2BgPRBvlISaczbWekM8ghHcNjQbLArYcn2F+3/WDtCaGrOqMkT4MwGx27OQTXDYL+d4QrNKW8cHYQH5YRD/lZlbcxqbnyndQo8X+68nVMsScN1zbnj2tGI7bd43UUyltYRJij0B0iCFhSB4e9k/+TuACKk9G7fjyhUdgk610QoSwOWp3px2Inza3Vzf4uSJmdxUeWyC0u+bOP0fc8zlyz5ZMsEcugBPhAeS07kuGTRfSjacpjNUmY+PcxWPSgKt4B3WNQOGNUS3bUWbVN9EpbPBYLPxA2ET7RXUjQ3hymRQ5yEWjF1W4WieeqHvQwLNaKi4F5EsxVYP/TrtMZd57jH2KUSfeG3y36BmNmh0F/vY7evRYJTAJ/fKoZqct+ix1Li5pkRgwqMFuUEh+fCfmqBEeFmZmRCyH2ZcDDeGp2GC5bmixJ60MJp0UhkoDBTU7lAxwvpBsiuE7d2iaZu2gA5HkjsLyIS6xcHeo7M67XDQTdRJur5MCmUxezbWfY/Zl5mjd6vz99iaTOOT3oFuiQIIG0pBFKhMdhZqp8kGUq4j/TQxPqpJcefbro9ZROgQByVkorNjitpw7+RU1fxakZDXyuyWCbE4SDHS3sb2e8dhnB9RlAam4PqAthu5BClVs0AJlhOujsQJhtuVE9QzIoxssDaSLiiOCeSv3CtkdnXRyUT3iD/req+7yFdERBX/teQlPcFYv4Gr+LWFBGg3ZIzFPvYUKh3RkRXoNli18SH3cN1jWbRHPy4IGYlE9EHz86HhYLofwJgunBhQ/bslJokMfmA+wxgtp5asZ7V/awe8ndVwppkpQsC353aVGxb7Rv4lmrcxoze0ksMmlfIj1gDOdhm2lPG/Dft//YuZJo7cjy1z/zI/CjnLn+umAAAHeDbECz6wxxWPgFQSJoY9Zyd6PYl42+U/t9hggfHFIk9OoHJWLUA7wk6fXkUxh+HOgSoehWA+7QDCfVaO8DNqRRl+c9Qs54XfyKaqDsKr8mJLkelfjXx3jbiUZTUIzFhrvm18hUZVweukVMImZKhjzhaC2dk47H2PqrGjX5VTsKncS2GhYSKS66LQT8Os7YWa3Sw4hYo3GmgntXfziGVL5Tcq7yP3TvSg1wnfloge2PCEAjZnvhOq5HQswt80jFWiGmKSq/ErxYkqpzQbZ6HjYLFJfzw3A91XqB/7OlMq4JN6YPOYBr8W4iImNZQ2bfIAiaiCKBFy7VSeSjSfZDDQL12L4a4qqU8lEmFtedbT+7aUFO7y0hM8C9TIGEfmJhESBc5Gw+L8RO3sJGEIhBgA0Ma41OhkduSmFhWI7yEtm487C2pTOfRdmfnxAiRsaMAQuWDD2YGmqFvvYNBixIonpXFLS5+NBq9xfAl7ATXeIdwE/wpb6Ep+mfrh3UyjRJ5jG0Zx0yxL6FOm2yczH1UkOLixNmPV+NeIY5ICv4Xy7J/0t8enXtuLyYB5kXJxvUyeMPMX3ZFINKHiCPJlnP8I/mutPbufhAf52CPTtLoRBok+PV9LVSCaYDEcN7G3oUU7drki5hv9BBVzBeHcJdHpoFYScAP8Jea9G3/VZ9NP9vOJMgHRX50rcZEoPfWYihoAw0sSm2Uc4NawSWZM/xFZ8dfGm7olFrUcEAnMgA7dR/BoYD3mYKmjonxJejE9WrV/yKcBkBn7cEuZZIiosRqGBHC88l9/SOyJngJ56UJI/QJMnQAAAtmyBNHD5xf9j5s1dppdINblHUapcESz8LYhD+ugvvXKIlGwARpoBJtmQepUXeijax3l0MyhrWttSbucoIqb7OOsl6UelHFIkcKwFmDv35vB9hBnDwG3m6MmAXiFpZUpKwg+pNTSaAdYWNDXZ8bQInBZgEG0n/+LD/rAPNJMEtnCVvsPyqTWu7z4bFW9RpKeJzfThv5vpY6kS6gTPSJ4MK5k76hrk+KrmpQSf/fJ/6BnmMNZdZw0E3Uhzbq4yfVTZFaQRg6zfhK2idfrHmxNcUa4nOQr9MCJ3+oyLGEU8ZRZl5cP+E1jsmn+NSNvjRvB47VvhVVvdOxkBpwpWndr63FS1NQxP7rlprMcAgWd9LkjMfNRbw8k8IRTQYDWk2n7dYpg7SDyToR6zreH58J+aXfuXNp7OCSYU+AKcMrp/JSxJ0UZ+RzNm+T4sk+hT9vLMd8mnyoY+Gu6BHv7cfJti2AJTClCEuCRFCRac55zKjcMk7ZGdfCalq9d+/aIisZjd22E87xUHVKYnuq5bgB6A03gUa+eumFiO4KrRMPIX5vO5DR/y3npfybIqGgL+RhJNWbHZkt9Bvs0qzFCQSTgadWS4qPWTiPMRNpIuKJ4htX+OpyoiC8njMdVqY3vni2TKPPUCviyRP6QwbyftC+ycUBIv8lKUXnXV+z1oNTDHZ4ftQXHWfGjOW2R7G/6beup6PEtOawxOZYFEwPNmrXJKl1dw93lw8xgfsey7LR/v+idd8wtFa3Ll9UDyty5fU8bCsUgeF8hutNjNWm9RsuwRaGUrKh+1tWfYYBDm/rO5OwsyqvDKVeDkZYAAPJcsBFhZk7J2CueqfN1fGb6RZ0QBPh26s2lMAnfArgYgqhUUF0LwnygJmmKEN2V6dnTbhCy8+UhGh4SgWLhWz2tTOXxXVwbzVjLT+6ApYXfs5QRuyfxiOKVrDRLY8VUDtsgbWmDMYRXdKQ7O3B6+JhIo1ikRcSjK6kTptJP+ZNt7/u2QYOo862KratG1dFPB/IMng4Pq2YNR3fg4gFXA2tfoN309+NgBoecleCBj+hzrxaokzwxUNj+96dRoU+xkcvtg2V95xin9WCe75d6DuGAGdPyQZJQQL0W1X4Xx9l/71CVX4l6ceiPp5MWZDJ6eZOH1jqpH6FGnKEbtaF6uLQpOeNQvtKV0WLoWJymdGAypbvwS1pu03g+qSIbQDqB9sqbqJGjQTAmEtLOVbS49wehrv3fW8UK7L3e215pAt+H/0AK2i9Ks3DRD/+eDajLNp6G28v/UKjoI7NHskvH9ewGoYzbDQDpmE1vLCbarTBBSbJ6Ny6BxoWB0BXE9k7+wrmNTgSQqk3Znr6zYyftP8mEsTfZxJv34oyH+3TC33f9K30KyA1mdWMcdnX7LLgDUtiP8z2RLPrfwcwkO+rpOLym+TT5QwWdpKAiPK9btVnZufNI7E1qm4RV0ymZCb+B5oXXe2qJtWV0l9GLN0GcSaWYod3WxLHIrBqflq/y3C35o5aEWv+IN9ocMGJ3j5a2j40g0wzJkhCw71y89iG1ihGl6ofTeoYzpfn3wnJRRLxogeC+6mPVk1205CUsY5tS5BnWnBpbJKYynY1z9J5waNCn7LABBd326kLdsPZ+8ZugVM96ylh3CqIIkGYhgTYMUYQivhPrcs0aHNDcdD0d3LWgQHKauDeTvzXwmDy/xq27TmbmKzM4rnUb2r/V9Y/8nzfY745nlJMQ8Pguk27b11qAkx4ZaCjkbeesa58zDGP+1PQGMNedPjFOqpXUC4IXK8wkac34BWAXuqsAcxOvOxBiX/wDtyKZzVYGs8beZq4hOG/KLhxvzEo4Cf7g0uNzmbDcdafokUtp9sSOiOopLnm4/dh7UoVw77+4OqelGPio0seKMCrms2UB+tzbd5YtjQHGxOEPL2cvTHfLzrHyHffgewPTLwr/POPzzGfFkAK71O6ADUN1iRIyMC7LOxIh3PKG8HGHc11X75C0+9QX8qhELDX9ibQirCVjb/In0sqdR1PJd1Ckl8uKLvrYFDBLE32Kccrrh7lG0g2k5ynYVFJTy2LLN2YgtsWiwOflX7HokKxR685c5xpC3rfsUUni5x17jjJLF1IQtgzb+koqen3JraQXtxOQ4CSd2S4tv33TZRMRKE9i4xnO1KQFNvtNGkGtSreCOsVdplVnv4rzdouOt2QdbH0NJc6KVRjLNT7ga30QWS5WbdgMKdZinhBD0wuAKEUX5PHGuOAFpAeHxxJ+jl7t/+LTwVBTCNpXbQ2PIZK2xAwmiill49Cj2gsxBcfWkOrA8OZU/vYwGV4xWkp35vGZ3oD6Zcc8Ycj5LS6SXvzNDe6FD2JzF9sCCKHAmkWajP9qLuB4rUi8Q1CuYlI8nGvxhfv5CXt/Jl80pH000wH8vVpGjTAXYwwFet0PumOptk7bKxu0nBq1vMg5UCrtR7hV5QeIxPfwKTnT3bvaBgwC0dKVaDbhccSjibjRaj1+CmMLc+yfFyWbbwUndeBG09kgAN+K8p18iWzhVcEEW5gSj5HQ/6FwtRqtqa8KmoA0/flZTUpQbUNnL1V5+tRgAdVchCckIAOP0wKNABis1bmRhYy8aHqy0n4PfP5QgdWxb5yrQNAUI5Wa5GHCXnWW9apHQo0mUmX8MtsnCVWV1sLt6dk4Q6mX2Y+1pRe0g3YBZ2J8LCFkC+kQc6GgFiBPG39auhrS/RRomIoZPVPpU7NHLgI1tQBY0gr16b79sW6mceASpDCOWivOnEXUkavGU+AVNQDA5WzMX67bVf0oHA+Nchf2SbnGt9ierpEeVXDDXI56c9djmWwWgSk8bZIMRFHCAz2NcmA6XNPlC3dnKE3Q0NhIiJRx5ZwmwtcMqlO4nft4poPbKLKeiLXkcIGImfPD/uiccAC9RsjtmkNzjkFNYdJBGA1691jLR849Tsu8b8r04FaUh/oN9qkx0rZnw7LCfWUssxTtuXfAQ36mYSdhgzWATomyLEKgwNzTiDdwWS43JC38iRNFwnpqCqG69VDeK34P2Zw5obroCtlf2A/z0hzeVyJgLi/MJBNK6xIoinlodWCrXNF3rKZhsr8707fyyPAm2fKAeLvAyPRuTXb966/Fit/wX0dVqB+oOceBNEtBl4IjkKsgvmmcOcflQ/S9gKOb24yPvpBWtgbgGq9K60w8PV7+0/sHayRXVKHo5egDgecKPMFaOUltfZczBUxsDd7fQTHRE/v6yUf32AAA+I0o3REMWV6xdJDf7jVt+/52mDM9Vyy3bY3WpPDicXlYPQgPj4yZ04KXyy6+5eOBZMjLrrS/EcMsoexCbwPy84A2E4hEOKWXvrptsFM+9gi0IAhv2bjejv88KpNE/Eunw4remUmMqRGfzvUFT0U5NxXcnH+lyiQaBa2gHio12EmYXwAuDG0O5F34Jxp/d0+P0+O9q7TwHqf1lMolEXP05BbhUtgm8uOwXKmRF6ZTeWD1ylPSWczl0RoRkgbVipnWh8Y5tZLOmxtvF71tDSJqPVCWtYuJi1dd9iz/F9CvmbU8auNQMsgyup+ouLwCWVvii3bs1CX2buLwCjUbxbpYr2bPbbbRi2rI3z6wXWm7FEXozsK2CIxSNsY5/VivHzqWw2e3J60C1qgUyT1FWSCEaUCxcnpYI//lUd7sMFlwMYYJzh7a7Mr1rEmID0MMyEumYI66gCATV+7a45m66L4p8IB9ZUHQlxoBinvxugEicWtclYQKqFn5keoD5PuVIGKI5Vl1XqhQdwiUeT3swv3N5T2lGF3Nx2VND6PT6sWDLlReZOnO8mF1vlbv0ETK8ot/FM1b+JH9ruL5SvrUfP5OwSOHCNszoD6BAszVpz8jISNhM8vpjMQ9VpOdgyQ4yJcxBnxiAU1t5CEbHywzZ/fK88cASeMbgVHb79hFNm5nExUiBjrdkWYnqix3MCAGInrMred3vSGa6J+N4j/tiM5JNkVZuu1JUawo8WWlwYJpGm3BoneGibJENSAd+91Zv9RB4m4g+8n/V1lqm5aoA6/39txD9a7wdTzqXwaJZvchOp7phFNsyF9nOtU19rzgAwFVbUlLAcwydmQsN12cN5rIAh2BwfXiYIxWe0y5mfKFpKLfufQ5mgXTCoxZVpnA7ipuBKJlGp73Fz/d9SxM1uuqFA6bd6p94TerzM2gVxV4Xigsxf+BYAKT6GOzDSTdC3dfy+iWxsygFfWgdSl1E+OXeB+zZtKImAfriUmaTI5/Uc3nNAeoAmkaOLfUvdZWGi8w+wnWi0dXNfApMUBmKUQ3xvmseNY0LG6vBCfbLpsFyHsaTCd2AkPPaUyU/w0JiDkUugTCHMI662bAmJtN4/7xLYACDYpvlQmCHG27cpGVD9FZps86HwHesIHlXuOkXArcUp58PFC1Jh/SYschAbMl49UoJOQ9rJAhRn8V33tldrLZml3JplK29X+4o88Zxuiaq54Rdkwn5VKoHcEZcRNaBJSNrqgLouF0zT062f57+R5Ydgyqrbgi2dgd1EUiAVphmqNjdgf6KZnmZjvoSjpJ372lkwZHGaU+iRNdEuxtABW3T5sUiFAgZ/IfzjqSr5IpNgSQZ8no5sHlSVFRUXz2WlrmQAQ45RiaXxZcltCa72SXP1UhZkw77ss/XLav2ugh6GtTFXYCS1uR7+RGQ1tkAFNbDam59G0vS8II6js/aTLbhtwk6ep79ctpgJmZmJ7K4skCsEmYOYQ47rCmcg4hckAmp7DwBeEetOTd6O5N6aLwZhto/u7BfgjEgvyztKuKi5MzRzQljo+93ho76Edutr0zxNyKQOsQb3c3gsmPWAvOXUSRAPYHm7QnW9bEMHZD7um2tJwCMD8hKZMWm9YMnwB0pnsMv8BeIOmF4Ci7Xs+XOTKnP89/CuE/ZVfoyX4LqDPolw70Vo+1APjSX6r1jm1O5mD/TfaivJE5doqxzijgR1r8HUvZcPIYoeCkGLsG2+oLqI0uqGRuzVbdnob9BGyOZvklcNxFyu0/MgReeLJiCOZtPuWLRT7Ki9IA2FXIfsre9GK8WPrgStLa0Fetkuzfly8/cAuf0sJ3aii3fjzMBbMXswXMxKvaHY0T6HoYkw7puQFV+9ArrZ2oNBpYGBLz1K7MxgZons83rKKGN9EqGeqawafhKeVd/OfHjhwkZzAuchM9QWiSBLmDGKyhu4H27Ofl15V48wHaR21oBx29g0j+Vt/F/D348cEJQxkztA23HZdWpeXL2LiOMAiwvVRMN8LKcX9rFUcnVbqLbkl6XXnhiAhUa3pXlja1CSKFofqpo9SKYqzB9l63Y59Z1z2d7FNjrXNyCiqpxwp3ixQgYHVp+Pe3g85PWRu3vvKKcr3LohYP96WqGRnuk+3i+DeXN5dw7RyVNTzAJre5mCXKhy+FPKHClLLPo38gbEK+2uhFlqtxO+P5kgXIHlq5pcVg9aRTc/V9wly4yqYiVU5zTtjLE1PG6FsdwMFHYieYRod0RTkI+/SOrN5JpLC5h02wZ4Kq2tY4cGt/2WR6uHoTEjrCwfIExDCN31ZutlX4D5gqTW57l+0h3NOhP+mE7YhUf91Qd1xV2DmYbKWYg82AqKB5KLteI4XAOfXjrwHcwFWz2Sil5AaCjQO7+qi+vDsi3h+fdufzUDZnUByFbAOX8jTVYOOc+hqcDWvaptDzPaCI06MtUv/opeB7CYijcC1iXQQ8OkUrwykDWU8ePBG1/ZlBWvtjX2bAl0cK8o2tjgFwGuXi+JjuzoIa7gNNUrvwlN9ifLko7XRFBUZODmt0wkxhUA/hLPYgcxf+lOo2wyPA19ZxrNp/krOX9QSnQIlAyQvFmLHXOPfP+7MPmp9kzt6R5JGyDbT+Q6EMxwSZR2lhqa8u4bT1gJ/pGSbJAmTGgytjsVVmehsN4JdEWceh4vNiRE/W4lVmOioaOe2UjWsSfNO2yQp801R4dCo84IKaX2qa3/M6tbhyeokI4LtAHxxSHUoai2rrIBWgSvheOh9qmNPjdPtLqhUwTdjxRxNEyIZzhCLpV/jl4nCeruUdroPVOX4P4hFaYbQhlJxsmMduDRIPsPAv4qBfYxo5kxWijmWE978LSwfTYRzhJKgNzOR4w+yQcY0JjrPqqlDLI0ZxjjphgUVIkWunhRUtUsft/VvQUQT8//VvFA3iMha9AD3DvO/6hxoDGCJDuUW6kRRs4U6nFON8X7aJL2pEoQ8qWpQQoZJLhVCuY4BiaexP2QiXQI78YdST2/t5A97Qv+9abZWT9jYMkAEvFwBs2GqJBDHtva0WxyZk7dkQ0lpVcrrx+bntElMyS4Rr7TcTZEdr/YGXItwWnceqBCVuj936O6R/9UgTlmgALLaYLuPwhZkViANixrX5CpUuW+jr4hdi6xq+0tHWjKmixorJk55ltlQd6sctNF/V4ZgeBVaUIFtT4sGybw7vqv+qXhBsmyVIJS7dVCI4qWEp+ILbEDfHihXvP4YoSfHQwBzLuyMIEefJDt7IlHYf2CWQpxMvm+fc/+eqt64BTQqSbkNnzdoolPqGnAtHDJhVup7QagCmyuBloV5ubQABOdf833kxyKIy+/qEdYQLYgcVd2EYEtFupVjTshddPxTKYBtD86qCgCC3aRLlx5QOWxuXFyFYbQY8icTMnDqql8nhzJa71Sj9axYObJqKjbctRg0p5n4waSj7G5X25W0+CvvUTHpKLRPBi/NJDOgHhgUQnrqipS50Ji/rGGDXQxYzfrKGV8xVDgO7uAsZPJWO1wjSQ4xHf/I6ANkjJOVfKj+opeXjvS9CLS4lHtnns5Htp4egXzkRvuFhUyo4ZCOfd5HVj3Pgevt6YW6oYn2qQVb+HowK494NIdE7DEVdooq9OCsTJS9NU12wtctESVl0CmYCzaPMUoKLeDdV2+mHFCgFxi4snzfSClOptryK6ovjHtm9GJvQghciCYvUlKQJQ2NTIpNawTG/FVoORjMP2cVto8lvRoKSY184ZP5f0Xn9ymp1AKUbUa2k1LxGcdbDKsvwD0CjRWYIKYQSAikG3VaP2KMn7SZTSaAr7o1GNmh5YvEoncpYJS/L4U0NDKdmg0Lw7ePtS97BSa1j85BQXS/vvu2pefTfaSu3kczkKDMh/YYa//bBL/+GAxJxxLjeq7dhh5bTjcWHxhitgvobCr48pWLJQyLqYvxhqZ7ZJF/WhfakKdhby0MRjpAxKW4OcRRDF6fWkB7wyD72wBy4oVncEsLSetnKWLiHNBki1ahNqY8hkZn38eUft/MFYvWEUZKHV+nEMVvV+sNBgdRXp30EYXlqpWWwcHebCUB1CMwL+DwzDQ3BekXrit10upoXgeHJa6yIBrZsO9YLJzC9zk5yCT/gRC4zyUjCXPVQs/aiI7mcIWrHrXcJcrTgc0uuQl22vqsMqwtiutXv0XcOcth+AOBNzIXxD8Z//1FhMAKAPXsSbHmVnK4MJyYx9I9DruTkI5EC8hQFIYm/jZvDOxzxlSwOrJdLuHIbxkPJBXd7X/+vCCWh465e7fC8pDXY79dWIgceLAa3uC879hAV0XogSn/mIf8nbItOOCTEJMuMJ+CQGhrSXTiskaecPHhcZZXJuwDxB9oPubRRFTRr33LOkm0+nZa0t1PIkyNGGKve/grXnL+3b1v1nqnA1c93tjcL6r9QooHmrAS1R6AaWvbHN4/9NnXu3Cc5I9WnvVPvFwbagNciiuPqQyz+eUyGoi+rzon+M+zv1BwzE64wSRgm5BI17hfx54Eo3sYvNkdWyCrQbI4X1qDyTQ6KtERndZvypHYoY0qtH9fjLmIkOGKSS12YnhHy0YO4oSw2rzAZjo/xdwoQZnfBJ/ThEN2qG+ybwKA9PNsG+tn9r/SIW5dICYfYR3V9LAkQdSpPr3BszzD0RZLCz/SVWryq+nZvKdB/Eyb73Tvz6aIVZhOXRVA3ws/BSVnX8M6GG8IP3JHWwg9l+/XOZB3n9lrdNMr90Xwvq1wgCYccMOgAzgJ7gM+f/URVlODB8k4EOCzsIYyuVihTEAh8cqRzAG46HN4tQ1s35XfwWBjo46PP/q6lxchTLRD0n6Jm6FSpSo7lnFyru5721KCszP00o4losdK9amrgbseNDqsMYftTnrjpgOHMsbQGuDn+4Qyj1HsB9qeRJ1s/XV6xnSNdnuGiZUk5EnULGVDA7E49RV6b8zjILc3GBoo3149bjDuObHK0X/dsWoYiWNvTuE8pwv2qj7tQiEPBZEGNDcmc7JOrbmOx1AwQGEvJbZlVo1zsSgL78Q37FhuI69FPJgaa35TwC+rJPQPZAM8gl+aaLQQwW+jAZVlT0VTyzv8QbHCRqo0S3FGXZowklW8QCiUGvZfkhbSQvKDpofE6/ce8oVOK142eywZIYJgwyH6SrMriy+25Nbp4RsIR61Vj6SnbOSiXcUtHX1nlzWF4ZbiH+TFGLcYICiPaSmAHkmeiy3rnsUKMqgHpoNsADPuT2XDCOPz+RxxHBQLforRqmvvOLw2diQU6zo7KiYZSp8Vwn1AUjq4EodnR1gYs2bP4/Ccn5T2VBWQ607riMI3OgspLjDAszJ5rxP0JHfH5gld4p/Z7QwEzMBt8Bk8eQ1VJlnxKQEJowlvMPiq4cyrchSu3AhpnCAj9Eg8sTSxysMTv0BArCSF4ruEZccLbRSctzAaGo0MbG1GppBejzwyv5fmtqzDVzbjpDnFEngehzkPqUcHXn7XqDOGW4xkJCg+FOpv7Y1DgiMCA/nXJR1dy7kGyPydbGadlu9iE5ZzIhUSXxWdmoCs+xSnQ5eioFl9eTWi3xZiuHkTiwCuLzqmWi5br5Y3eiso5KSfN6A2/eQ2yN8HS7jDXN8GOC24ysvFrgmXWemaG4HOoEdzmhOgh66MPP+bsbLYViY1f7iwz3sFaRC92g3/sZuQXNLSTTyL606a/qWaUOFmHKVoi8sAGrQNuU8I37dnCBOrQPiF+YD/NSpZDqzfngd2A1XtQciE+FfKfi6WOhMXqi2h2IySOOzVFmd52oClBTTyz32B/i4vF4QFCNANpcorHveMg9ofheydGaLzxI8l5fGmnj0n3DZ3PBbshgRVCu2kk1j+8S5aHwIpJtcdOVwfw3JWsm+eJM/OnmvMTd+v/iW9FU6QTmkGenrOqwb3aPQLeJcVwdqMsJ2iI6wKdE/T1qHxjvnrGe2GLhDmMkSjSq52/cu7edGms/3657HbE7DpM9G+K71xGFwD41vcjQo1yoWKFQly17sZEw1gtUyF4AH8NTU8bRLZcLoKbl/iIEj8c6NWsiqeE9ftmXxDPooEobvREpbGUH91HIjVteMsOPE7ponO0yhPjU8OXSL4qrsm++RICJ5TWohSKDzkhuw5AQWGTkOL/owDKJ8RlTOxvSHFhSTf85Wy2Vj1x6xYRwBvcL1hkyCWcOlM5MMZz8Cbfhbxzf0JxZCSSfskntWI+atFgfBc2jykcqp8XhZ80b53/nzilNQMgF5pPO5heljDFd8P+DXMhIHDSAmpzoNzlfTXLenGrfiWanvJD7EZdQRBDTwHWMGzVLONQXzyp3tfGn0GxL3qVl9q6CFY0g1CFPrX7va2ZBo9NcTHHHvzQXx4t0O92cVA1qDxGFJpFQD59pUS7gc6FEO3fzVRqb96jJGDBa895/hQF7Bjxr9fpMusqx90zBUDF1uk1hWAguUHGyb+sw54/OqePvrQlJJdpbSHrh5wpJKC44NoNySvsNq/MuN2pKCFsE8UZ3FK2LOFs5r3+S5KKjFMeZk2kS8XkVcO6CK4yj6dqQptMz2FIrjKP5R2kgvcyCbBPBP5V+yLQmgF1p9W73qflBCFWkGSuUEtUKmCiaMS/GvTft+3630Tc8Zp60+fl79hRs15tVZRaM1bewJsyMkCN9M8ApdO3LFSb339DT9q6Xj44yzccjpZWbhQYjVvy2WBrlP4A5mQ012C4ALTANiwC+lRbhwKGTvTgw7B2eZCDHLCK878myBa9gkE0Imt9dGQDjil1h8hR5ROKs6BLUfaX0sFo+1sJbO7EtZHHfgvLcDzk5EBBKx2kD+ZozEVt6bAHG7qcccCcEJzZld2GsllKPbw+sET9pWT/OJDgDrlK7/Or2LFiS6evwryyBmn32IH7RaQVZ6Acu6hIzkdLKzcJLWbMhK8tZaKaHjIAsOAAuyc0Qu+tOosUwXToiLtOTtsKd8D9fIeAW7DfNsDSxx4aXFQ/+BevsCCB/iDYXzPtVjfV7svri/3ZoQGkRvPKGO3KlkmkfjXF4FV8gz377pUWJqUuQleHhhlWmpNP5XcDZN0i0gIu0ijzLWGZ1A691Ih7SDuJohQWYeagLAZQKazJLTZxuPHlz5t6TJPgOaT6qgXdsp+alBrpj5jzy+MSfijdiDO4f3m9Y25dfUPBO+0G5NGmm0lm7PVOA8jhkj5Mp56L5OlDknaDfkhv4/QAVau5q8vEE6/FA44AvtrGrtBVuSJkhOadla1Pt1DhkXxEaMAp+n+scfOwb3BPHXci/CzaQG5CHHzFCNbTsRpkgTH2FuLR/dNaQidp81Zxmu1VXvz0/neaP867VxGqB1xGGmYIdfMPbrsC1VCc/9v8UCqZ1T9M0xOr5Po3z6P86YHU5Iz2frUpiFwA8i8lObTDO8XbkLm52RS29TsaTdVNa017K/4ammJRLuSbhl+SK9tSB7rijC9n/xbJOJx6I8VFugtbkUbftHAuxd+2R31UqCSm+wx6rbHKQmrVOjogh0zMblUelGRB5pWLwSu4GnDMsaVH0/GilvEo/02T4QAw/0r1qMnEyaTxa9xMk999U/eOgeE59WT75iTL9JEA9W/I/88XFovPafu7jz3sfQvWYmAeAGhvzW6H6Qc7kLzbSr8dl9vf/pJYi6PzoNSoNw7xqk0bpwFFUJXhlnwlCzHkaifE5TJ2CZIbEZHCo9Bc3+9+xBrk7GshxPeAWbQvkhHHgLcEj+A8kwUVbqfXGS6uetdKFzh/Ob1cNCH1ulUklLs5Qn/Lpm2x5A4A++dgL9s+Eghju/t67gxqWYEbWjTEWlOSsgyRx1wEMk8NFrpr3K15fxSMAgcD8xM2lhQQg+mwn3m5TggJ4wGcwToHSM/YM8cLkIEwNcjtEFSyt7DlEhi5Ap0tPQE//cjcy/fgdX83cluALM2NOTiHC4FnngDa18gI7fLBHd7nzGj9RmTIpYX0/9MhaYAjfWH2AIcBhv5ox9+OkzwnXb28lrWi+lDsTl2XZLB/OgDp3xKnSLyP9sZzvPRsLJ6dG0YwtMDX9dYpFyrR8bd4HyjRByVVZqFN41wo4z4WOsUpiVbQOtSA3E7XFyAZqSY/l0uFufJr1JL0m0SIVuF+BZKo4LWrKtH6wxPXyLANUKb+O+iQM4axv1EqZVSzRiVI3IQGhDAIOQ0e6Kr4xK27bR82wFNP+cU5tNHORGzlMTm0jfJKSKrUj8f6k/KT4uFwWE+exS+Le7f9EA13GHVQGtvRspYMng6yyYu2uWo41p7gtHczY53xQ1zlDH5oE5kYti4/YUv9b2t4y06bHxRwx/Ddyy+vvMR0gdDupOlFZ/jT3z6g9rlEiM+bFx4VrRw6lcmkhn8McrxfZ30GsOfYA5hhgd4fQGU+mBhBNKbO/Qe+Xdu77v7zPpwX/ABYw9y9rneTuRwz2ovGNHqhroHxLrlUccFEGTYZkoYljMgRb1waFeesVCP9UV/LnEoYVKE7pcBVFenYZ1Trn5oltRylltq4u/P+ud7S1k+JYv+GuweSz4Qj7NcLOX4LLYPnzAvjTgaMsMx83HW9U4u+hd+9Ek1h4nVZPcyLXkzT3cPK9s6pxzTXFvaJd9qvNcudnTCDpw1O46edqgf0+9m9yT0x37W2jO3aRyQQS+n/o/dXT8J6K+siErePk3vMTjrLWeRYSOJoFImolhPjXooGxglGrkUBbap0jPcXTIYfUsZ32qozjyBINcqV0So4ExMsgtymMTmP7zmh9uymufaEfX4i3dICCq90yfdLf7R7zFVogd647EwiVI/nfu71HD1LBFTmNmLxHnuF68vUEgGIyIxmFFLUbuFgs2k++UG9OFr+vkJ48JJtqkLI344CHDKRUT6AkWntSLqR4AAC6KKEjc7RMOE1eOtB0qIKOtbFYnbG3y6b7qRP7xN8LMs2HtDzYt7dj3qK4DqYEa6B6uNO2woAAUZSTMlmNff/XrW8l99lUIW4RGOhNFNr5jaOIvgxLQmvxyybrsfjCW7chYZdQGHL7LENI6n0A1zcBjyo3YAarCVQvTkZE6FFeBYqisWRGy04RI2TPorPrYKTGf22ltvv4MMBRtBW/un7nYEyiU04hnU+X6+sWKB2mhmlfiFfZgJPTfTs54L1n5iWQYk7n0q7m7hLNrvOBkzE5pn/8AurWXo1A5zw6JUCk3qa1kN9tF2F9uNOsfz9zW102qw9GR+a7Yk7pMwqKUOG3KSK+v0kzPXmy5bXw3alnSKXEU2SXDkwBaJIHGU9ze7DhJHMR95D4Ja6eYewICEorv2bWYAIlTUdGzM38GJ/b85FYYGMimraQ/tfzFY1HsMiCiskHOTaME7iIB78A/x4HTyKGr1hcWbKlHs1W3pVl1eBfs/vg11/mrevSiy/nEN5tU89KNv2Qej7sQxft8j0HWCYfuhv6r876c6COX0akOav4/cSlsMTKoyMb7NrZqdWHSiJ4hKxhpwcZ+e/jPrzDHkX5NSI4DAN4UTi5tcLfuX0qsAZCLMtfkoU1sS9n6xsVSwYsNf0pGggEpvqXPWg9FYORka+kLDVua66nQ0yZ+93/eD6y2Wy3KbYBraEk9n0HNjcq6t7QTcu9i8nlmNr1l+N78d7IuYWpfAmoZsIZqRg8rAtGx6aMLadnz8HlWBO5HyRYOhPUqHKMwDMcTC1soWc9Fiy4yn7mDN+m9C/vJpOl3t9O9yLT7Y/ol7PtAzD7RvmoPh/0Xbm6GhCjdhGPJ34ah/6328HAADWQf5igR7NzsxFRgSUYYlnnTANn5eFf3R6YuZQaBB+QYpZsY9sLQxTzpGxbQdOPxY2JOxJKVqRjHINXjsUgZwJu1Kasns3xJwERiAlqDjN2ARV2cgy9WQ1c0IXV/pesJIosE3CW4wCMYfgk6R5EhpvYiT/QqzS8vGtgigUy3doDzjl+3RGpmHJX/oRRPr3pc0ki9SZjTgVghgyb8bCCOOuXekZk343GHMeuUCCwp3Ry+ijUPUX73mpTTd4DUL5IZltaDN/JGZMyd3Vbja6avKjhnzOqkGKl00b5lqPP7Mm4pvl6buvm0vWVoQ7Nh4SDmMbMmesw74dCa4BDthWbxexNLQGyyjM0aixpC1rWv7brXuE1ONTq0Rhda1GlNWNGdg8h88diNPhCWGI7fmE7Dn5LnKjQSU6gsE77mJVFlspSEUSd4k4kSzpypxCBqWKU6D018IMkur4utzGdhsWiJOeJC4Hji4DKUUgZydL8V3va9j42B/TrEjvLfo4lCwTGeattks8qAsbMBsFNfHc/tLR/WFw6pct4Vida2el+PygltNwetvzRXUqAMtWi7VXDHyNLLeggPRmFqF+h2GWtWPbbJKTc4dVApgS921F2dL67VgSnFgH+pY/caC6V5vKcyZn9fVu8KvAm5fQ9VtkEe8i9WXrqZsl1iHCRjonOvLzmQe8CsXlsb5XFfvLlXX0QkzcUDVSZLbtK3yBdWdj9ozHJYLUA0DPrThi+B1nw1SzLB/ZWin2PYbSlgK9pnpRoZGaVcLq7uExX1cHEY1NiJDjZdjDHbshXjtPms1nn+m7Ym0Twc7m9TYOJH8imZhj3IoerwHrChzXUQEtY4brtVkHMGW+nDJE7F0791UsqycvV9n2A/UXMOSEqXTrJ+4HI+G23yvas+2o8S32rJPiiyugL3b+QKbPyMWyK4L21XfuEfQ0NypNcXJqgnb54UAOWV1gweXfs5/wqTMfR82AyvoHjl0GW2C5hUSSHjZOOonv6I30IceDE1ON18Z/VftZpw0/HRrKcJXpzLfsssnkSbwJF4UzZ5t3HmrqADSWPpZUWkkhmZpNsGaCtYGF8hBYJvOb/s6/pMD69bkNpjpw8h9rwqTTEX/klhYzUvmy/qmWJxkn17hfMpIdtizijfEcGWRN1mB2n5DoOpyIBbu39QylVMV5DK4LM00M3yQIzhHaulxYOO7//4SviNf3yoPOLQ0HKmAlDPDkHW+b/So9ktWeuuC6Lkt3rzXcddZa9kbLfO1izB1tQ0PH3oc8oQcHvjOaLelcfW1osakT3RrUvnvdobzj5r4u3GNox1Fn7fH3hd638b8AS80HxJFrqarUP6VMZuVc59IKLBbQVmMLFgRDKbzmwCnIUw11aICDk10ALGTuJ81rmKCUAXHM6PPHHJzVL5v3HxXTUHNx8SlEouzlC6Yl+ZAvVQbYn7xQw2biwGEYuU299RVPi1Zuugyv3csRQtFuHo+rTcMNt9iIXQU9ZO9bDkJrp9PTxQkJ/26XIMSPb1UmV16wczQgNl5rynZD5Gcv8cQcEIZdnieVbOSKt8ilzy+/MHJF9wu3jKOoX8rFo/xTwVXU0BqXyubAABrpuPq1hUxfFry1I93pLef/bqpQO1SqSIQIxG4QAPoO9KArD+ClxsLUjma9e6qDrqF/Isx5UE3q/WLoA0h6U0aFvYPCyRdFaw6K43zOxJAs0YvuY9eidfBDNWtAINHtMfagArmACan56TN1kftbJ3bytm4yzz/A9rJFuYO5rH1er1eqtFPJ/VXtCfX427jUbb5JPg2r6mCLr+pT708FPvTwITZZ8HdvnlRx4eGbZH9xAB8UOp+liCAcKe6XpQJXpLw+8Mlc0rc+/PiwZErcoZ8XWUIEiNRZWMWmvMpZzQ3fGhK5WgrIz9c1kazJ4g/N1ILMMocyYXSvIJw9sk4rO3LNS95zxuzC1kcCUfxnj9xV1yhzRvywuDa/yrfgP8TdVYv5XFXZCM5fisFaFMNHTwc3UmJylGn5sGx6RpodHGTrXn5SgVmnYQIQQZR4iD0xr0EkjKkMbjWmlps6Rl+vLFzUcIUv8KJqeTvdoxc8ClZyu584AcsPpWYKXty3O48HwLKOcCB7Bg1oFRJBVXOVAQwBPpV/E3uHygo6jKYAIuEcAlE4+43eJ2+sBdomRA7XKEQIu9GG0MT4cmhVlmQcXZBKWpM1q1Zz5/P5/P5/PWnZShZ+URh8Gj+7ZA3p70j4+JLOpcQY+pDBZFODgJv0SLsbdPyRhiKe5AAvR5JMKhmlU+/uVCtT71Yo+vKLj2B/MfhiJai/n3CO5u9bob3nzen52Y0FFyUb6Df9u/M5oxt4hb8eJ9Ac8FPc9sjiVUG+IJPnvxdOf0Ir9oClusrqEoIc70buwta2RaSxjZpZ0jtJxc2PNzfcdyZs1lqYmaNrNCd8JKWALLCmfEvTdcTD44LnvQRbwS+gBgo1aqmEPRBQqgQlQuGLKq9IRPgayjmUH87wp+CagP4bTlqw8W4Q9Pm5JQK974X/KoOPP/CnHFPAcuS43VU8zO6U7EgPJ7UXX8GZ1/xkiOYFQmo7wHkHbihcOiI5QKbEaHS+4E5Lx/9qGD5agpnRJgH96tjw5Ia+mNTv9/cERXzuNbBLZjBPW5qOqib6JXhRSQAEnTdmLVFzIrU5QOkQIzbhWXpPxINKOxEnX916Gefso7qIAKZOYKIqUgap29hPJD4lK/ppo8FzuGstPjaRM2FSCHfc9TGbU9hgPUmS6Xz/7ea2dIRGXuPdiJKx7YwGSSEMXftkDkg0JD0YEOoBsQYxFuTK5x3swDQAAAAAAAAAAAAAAAAAAAAAAAAAAAA==;" parent="7" vertex="1">
                    <mxGeometry x="550" y="80" width="170" height="170" as="geometry"/>
                </mxCell>
                <mxCell id="11" value="&lt;b&gt;&lt;font style=&quot;font-size: 25px;&quot;&gt;Museum Entry Discount Calculator, in Javascript&lt;/font&gt;&lt;/b&gt;" style="text;html=1;align=center;verticalAlign=middle;resizable=0;points=[];autosize=1;strokeColor=none;fillColor=none;" parent="7" vertex="1">
                    <mxGeometry x="80" y="30" width="600" height="40" as="geometry"/>
                </mxCell>
                <mxCell id="12" value="&lt;b&gt;&lt;font style=&quot;font-size: 19px;&quot;&gt;Place your free entry museum discount:&lt;/font&gt;&lt;/b&gt;" style="text;html=1;align=center;verticalAlign=middle;resizable=0;points=[];autosize=1;strokeColor=none;fillColor=none;" parent="7" vertex="1">
                    <mxGeometry x="10" y="90" width="390" height="40" as="geometry"/>
                </mxCell>
                <mxCell id="13" value="&lt;b&gt;&lt;font style=&quot;font-size: 13px;&quot;&gt;Enter your Age:&lt;/font&gt;&lt;/b&gt;" style="text;html=1;align=center;verticalAlign=middle;resizable=0;points=[];autosize=1;strokeColor=none;fillColor=none;" parent="7" vertex="1">
                    <mxGeometry x="10" y="140" width="120" height="30" as="geometry"/>
                </mxCell>
                <mxCell id="14" value="" style="endArrow=none;html=1;" parent="7" edge="1">
                    <mxGeometry width="50" height="50" relative="1" as="geometry">
                        <mxPoint x="130" y="164.5" as="sourcePoint"/>
                        <mxPoint x="280" y="164.5" as="targetPoint"/>
                    </mxGeometry>
                </mxCell>
                <mxCell id="22" value="&lt;b&gt;&lt;font style=&quot;font-size: 13px;&quot;&gt;Select day of the week:&amp;nbsp;&lt;/font&gt;&lt;/b&gt;" style="text;html=1;align=center;verticalAlign=middle;resizable=0;points=[];autosize=1;strokeColor=none;fillColor=none;" parent="7" vertex="1">
                    <mxGeometry x="10" y="200" width="170" height="30" as="geometry"/>
                </mxCell>
                <mxCell id="24" value="" style="shape=waypoint;sketch=0;size=6;pointerEvents=1;points=[];fillColor=none;resizable=0;rotatable=0;perimeter=centerPerimeter;snapToPoint=1;" parent="7" vertex="1">
                    <mxGeometry x="20" y="280" width="20" height="20" as="geometry"/>
                </mxCell>
                <mxCell id="23" value="" style="shape=waypoint;sketch=0;size=6;pointerEvents=1;points=[];fillColor=none;resizable=0;rotatable=0;perimeter=centerPerimeter;snapToPoint=1;" parent="7" vertex="1">
                    <mxGeometry x="20" y="240" width="20" height="20" as="geometry"/>
                </mxCell>
                <mxCell id="25" value="" style="shape=waypoint;sketch=0;size=6;pointerEvents=1;points=[];fillColor=none;resizable=0;rotatable=0;perimeter=centerPerimeter;snapToPoint=1;" parent="7" vertex="1">
                    <mxGeometry x="20" y="320" width="20" height="20" as="geometry"/>
                </mxCell>
                <mxCell id="36" value="" style="shape=waypoint;sketch=0;size=6;pointerEvents=1;points=[];fillColor=none;resizable=0;rotatable=0;perimeter=centerPerimeter;snapToPoint=1;" parent="7" vertex="1">
                    <mxGeometry x="130" y="240" width="20" height="20" as="geometry"/>
                </mxCell>
                <mxCell id="37" value="" style="shape=waypoint;sketch=0;size=6;pointerEvents=1;points=[];fillColor=none;resizable=0;rotatable=0;perimeter=centerPerimeter;snapToPoint=1;" vertex="1" parent="7">
                    <mxGeometry x="130" y="280" width="20" height="20" as="geometry"/>
                </mxCell>
                <mxCell id="38" value="" style="shape=waypoint;sketch=0;size=6;pointerEvents=1;points=[];fillColor=none;resizable=0;rotatable=0;perimeter=centerPerimeter;snapToPoint=1;" vertex="1" parent="7">
                    <mxGeometry x="130" y="320" width="20" height="20" as="geometry"/>
                </mxCell>
                <mxCell id="39" value="" style="shape=waypoint;sketch=0;size=6;pointerEvents=1;points=[];fillColor=none;resizable=0;rotatable=0;perimeter=centerPerimeter;snapToPoint=1;" vertex="1" parent="7">
                    <mxGeometry x="230" y="240" width="20" height="20" as="geometry"/>
                </mxCell>
                <mxCell id="41" value="Monday" style="text;html=1;align=center;verticalAlign=middle;resizable=0;points=[];autosize=1;strokeColor=none;fillColor=none;" vertex="1" parent="7">
                    <mxGeometry x="50" y="235" width="70" height="30" as="geometry"/>
                </mxCell>
                <mxCell id="58" value="Tuesday" style="text;html=1;align=center;verticalAlign=middle;resizable=0;points=[];autosize=1;strokeColor=none;fillColor=none;" vertex="1" parent="7">
                    <mxGeometry x="50" y="275" width="70" height="30" as="geometry"/>
                </mxCell>
                <mxCell id="76" value="Wednesday" style="text;html=1;align=center;verticalAlign=middle;resizable=0;points=[];autosize=1;strokeColor=none;fillColor=none;" vertex="1" parent="7">
                    <mxGeometry x="40" y="315" width="90" height="30" as="geometry"/>
                </mxCell>
                <mxCell id="95" value="Thursday" style="text;html=1;align=center;verticalAlign=middle;resizable=0;points=[];autosize=1;strokeColor=none;fillColor=none;" vertex="1" parent="7">
                    <mxGeometry x="150" y="235" width="70" height="30" as="geometry"/>
                </mxCell>
                <mxCell id="96" value="Friday" style="text;html=1;align=center;verticalAlign=middle;resizable=0;points=[];autosize=1;strokeColor=none;fillColor=none;" vertex="1" parent="7">
                    <mxGeometry x="155" y="275" width="60" height="30" as="geometry"/>
                </mxCell>
                <mxCell id="97" value="Saturday" style="text;html=1;align=center;verticalAlign=middle;resizable=0;points=[];autosize=1;strokeColor=none;fillColor=none;" vertex="1" parent="7">
                    <mxGeometry x="150" y="315" width="70" height="30" as="geometry"/>
                </mxCell>
                <mxCell id="98" value="Sunday" style="text;html=1;align=center;verticalAlign=middle;resizable=0;points=[];autosize=1;strokeColor=none;fillColor=none;" vertex="1" parent="7">
                    <mxGeometry x="255" y="235" width="60" height="30" as="geometry"/>
                </mxCell>
                <mxCell id="99" value="FIND DISCOUNT" style="rounded=1;whiteSpace=wrap;html=1;" vertex="1" parent="7">
                    <mxGeometry x="20" y="380" width="100" height="30" as="geometry"/>
                </mxCell>
                <mxCell id="15" value="&lt;font style=&quot;color: rgb(102, 102, 102);&quot;&gt;Age number...&lt;/font&gt;" style="text;html=1;align=center;verticalAlign=middle;resizable=0;points=[];autosize=1;strokeColor=none;fillColor=none;" parent="1" vertex="1">
                    <mxGeometry x="162" y="183" width="100" height="30" as="geometry"/>
                </mxCell>
            </root>
        </mxGraphModel>
    </diagram>
</mxfile>